<svg width="182" height="92" viewBox="0 0 182 92" fill="none" xmlns="http://www.w3.org/2000/svg">
<path d="M0.0859375 71.8984C0.0859375 71.7422 0.0859375 71.5469 0.0859375 71.3125C0.164062 71 0.242188 70.8438 0.320312 70.8438L25.0469 37.0938H27.7422C27.7422 38.9688 27.3125 40.9609 26.4531 43.0703C25.6719 45.1797 24.6172 47.2891 23.2891 49.3984C22.0391 51.4297 20.5938 53.4219 18.9531 55.375C17.3125 57.3281 15.7109 59.1641 14.1484 60.8828C12.6641 62.5234 11.2578 64.0078 9.92969 65.3359C8.67969 66.6641 7.70312 67.7188 7 68.5V72.9531C7.70312 73.1875 8.67969 73.6172 9.92969 74.2422C11.2578 74.7891 12.7422 75.4531 14.3828 76.2344C16.0234 76.9375 17.7031 77.6797 19.4219 78.4609C21.2188 79.2422 22.9375 80.0234 24.5781 80.8047C26.2188 81.5859 27.6641 82.2891 28.9141 82.9141C30.2422 83.5391 31.1797 83.9688 31.7266 84.2031C31.9609 84.3594 32.3125 84.6328 32.7812 85.0234C33.25 85.4141 33.7188 85.8438 34.1875 86.3125C34.6562 86.7812 35.0859 87.25 35.4766 87.7188C35.9453 88.1875 36.2188 88.5391 36.2969 88.7734C35.8281 89.7109 35.3594 90.3359 34.8906 90.6484C34.4219 90.9609 33.7969 91.1172 33.0156 91.1172C32.3906 91.1172 31.1406 90.6875 29.2656 89.8281C27.3906 88.9688 25.2422 87.9141 22.8203 86.6641C20.3984 85.3359 17.8594 83.9297 15.2031 82.4453C12.5469 80.8828 10.0859 79.3984 7.82031 77.9922C5.63281 76.5078 3.79688 75.2188 2.3125 74.125C0.828125 73.0312 0.0859375 72.2891 0.0859375 71.8984ZM88.3281 91.2344C88.0156 89.8281 87.625 87.9922 87.1562 85.7266C86.6875 83.3828 86.0625 80.8828 85.2812 78.2266C84.5781 75.4922 83.6797 72.7578 82.5859 70.0234C81.5703 67.2891 80.3203 64.8281 78.8359 62.6406C77.3516 60.375 75.6328 58.5391 73.6797 57.1328C71.8047 55.7266 69.5781 55.0234 67 55.0234C65.9844 55.0234 64.6562 55.1016 63.0156 55.2578C61.375 55.4141 59.7734 55.6875 58.2109 56.0781C56.6484 56.3906 55.2812 56.8594 54.1094 57.4844C52.9375 58.1094 52.3516 58.8516 52.3516 59.7109V89.4766C52.0391 89.4766 51.5703 89.3984 50.9453 89.2422C50.3203 89.0859 49.6953 88.8906 49.0703 88.6562C48.4453 88.3438 47.8984 88.0312 47.4297 87.7188C46.9609 87.4062 46.7266 87.0547 46.7266 86.6641V28.1875C45.7891 28.3438 44.9688 28.7734 44.2656 29.4766C43.5625 30.1016 42.9766 30.8828 42.5078 31.8203C42.1172 32.7578 41.8047 33.6953 41.5703 34.6328C41.3359 35.5703 41.1797 36.4297 41.1016 37.2109C40.7891 37.2109 40.3594 37.0547 39.8125 36.7422C39.2656 36.3516 38.7578 35.9219 38.2891 35.4531C37.8203 34.9844 37.4297 34.5156 37.1172 34.0469C36.7266 33.5 36.5312 33.0312 36.5312 32.6406C36.5312 30.6875 37.1172 28.8125 38.2891 27.0156C39.4609 25.1406 40.9844 23.4609 42.8594 21.9766C44.7344 20.4141 46.8047 19.0469 49.0703 17.875C51.4141 16.625 53.7578 15.5703 56.1016 14.7109C58.4453 13.8516 60.6719 13.1875 62.7812 12.7188C64.8906 12.25 66.6875 12.0156 68.1719 12.0156C70.3594 12.0156 72.4297 12.0937 74.3828 12.25C76.3359 12.4063 78.0156 12.875 79.4219 13.6562C80.9062 14.3594 82.0781 15.4922 82.9375 17.0547C83.7969 18.6172 84.2266 20.7266 84.2266 23.3828C84.2266 25.8047 83.7969 28.1875 82.9375 30.5312C82.0781 32.7969 80.9844 34.9844 79.6562 37.0938C78.3281 39.2031 76.8438 41.2344 75.2031 43.1875C73.5625 45.0625 71.9219 46.8203 70.2812 48.4609C73.9531 50.7266 76.9219 53.0312 79.1875 55.375C81.4531 57.6406 83.2891 59.9453 84.6953 62.2891C86.1016 64.5547 87.1562 66.8594 87.8594 69.2031C88.6406 71.4688 89.2266 73.8125 89.6172 76.2344C90.0859 78.6562 90.5156 81.1172 90.9062 83.6172C91.375 86.1172 92 88.6562 92.7812 91.2344H88.3281ZM68.6406 16.7031C68.0938 16.7031 67.3125 16.7422 66.2969 16.8203C65.3594 16.8203 64.2656 16.8984 63.0156 17.0547C61.7656 17.2109 60.5156 17.4453 59.2656 17.7578C58.0938 18.0703 56.9609 18.5 55.8672 19.0469C54.8516 19.5937 53.9922 20.2578 53.2891 21.0391C52.6641 21.7422 52.3516 22.6406 52.3516 23.7344V53.5C54.2266 53.5 56.1797 53.0312 58.2109 52.0938C60.2422 51.1562 62.2344 49.9062 64.1875 48.3438C66.2188 46.7031 68.1719 44.9062 70.0469 42.9531C71.9219 40.9219 73.5625 38.8516 74.9688 36.7422C76.375 34.6328 77.5078 32.5234 78.3672 30.4141C79.2266 28.3047 79.6562 26.4297 79.6562 24.7891C79.6562 22.9922 79.3438 21.5859 78.7188 20.5703C78.1719 19.4766 77.3906 18.6562 76.375 18.1094C75.3594 17.4844 74.1875 17.0938 72.8594 16.9375C71.5312 16.7812 70.125 16.7031 68.6406 16.7031ZM101.805 67.4453C101.805 61.8203 101.805 56.5078 101.805 51.5078C101.883 46.5078 102 41.5859 102.156 36.7422C102.391 31.8203 102.664 26.8594 102.977 21.8594C103.289 16.7812 103.719 11.3125 104.266 5.45312H107.664V50.4531H133.211C133.133 47.6406 133.094 44.6328 133.094 41.4297C133.094 38.1484 133.055 34.8672 132.977 31.5859C132.898 28.2266 132.82 24.9844 132.742 21.8594C132.742 18.6562 132.742 15.6484 132.742 12.8359C132.742 10.0234 132.742 7.5625 132.742 5.45312C132.742 3.34375 132.742 1.70312 132.742 0.53125C132.977 0.53125 133.367 0.609375 133.914 0.765625C134.539 0.84375 135.125 1 135.672 1.23438C136.297 1.39063 136.844 1.66406 137.312 2.05469C137.781 2.36719 138.016 2.79688 138.016 3.34375V91.1172L134.383 90.4141C134.227 90.4141 134.109 89.9062 134.031 88.8906C133.953 87.875 133.875 86.625 133.797 85.1406C133.797 83.5781 133.758 81.8203 133.68 79.8672C133.68 77.8359 133.641 75.8828 133.562 74.0078C133.562 72.0547 133.523 70.2188 133.445 68.5C133.445 66.7812 133.445 65.3359 133.445 64.1641C133.445 63.0703 133.445 61.5859 133.445 59.7109C133.445 57.8359 133.406 55.6875 133.328 53.2656L107.664 57.8359L107.43 91.2344H101.805C101.805 91.1562 101.805 90.6094 101.805 89.5938C101.805 88.5781 101.805 87.3281 101.805 85.8438C101.805 84.2812 101.805 82.6016 101.805 80.8047C101.805 78.9297 101.805 77.1328 101.805 75.4141C101.805 73.6953 101.805 72.1328 101.805 70.7266C101.805 69.3203 101.805 68.2266 101.805 67.4453ZM174.812 59.5938L147.859 37.0938V30.2969C148.484 30.8437 149.422 31.6641 150.672 32.7578C152 33.7734 153.484 34.9453 155.125 36.2734C156.766 37.6016 158.445 39.0078 160.164 40.4922C161.961 41.9766 163.68 43.3828 165.32 44.7109C166.961 45.9609 168.406 47.1328 169.656 48.2266C170.984 49.2422 172 49.9844 172.703 50.4531C173.406 51 174.266 51.5078 175.281 51.9766C176.297 52.3672 177.273 52.875 178.211 53.5C179.227 54.0469 180.086 54.7109 180.789 55.4922C181.492 56.1953 181.844 57.1328 181.844 58.3047C181.844 58.4609 181.805 58.6953 181.727 59.0078C181.727 59.2422 181.688 59.4375 181.609 59.5938C181.062 60.2969 180.281 61.4297 179.266 62.9922C178.25 64.4766 177.078 66.1953 175.75 68.1484C174.422 70.0234 173.016 72.0547 171.531 74.2422C170.047 76.3516 168.641 78.3828 167.312 80.3359C165.984 82.2109 164.773 83.9297 163.68 85.4922C162.664 86.9766 161.922 88.0703 161.453 88.7734C160.75 89.6328 160.086 90.3359 159.461 90.8828C158.836 91.3516 157.977 91.5859 156.883 91.5859V86.5469L174.812 59.5938Z" fill="black"/>
</svg>
